<svg width="394" height="34" viewBox="0 0 394 34" fill="none" xmlns="http://www.w3.org/2000/svg">
<path d="M119.362 12.6812H122.242C121.97 10.0252 120.306 8.16923 117.186 8.16923C113.57 8.16923 111.634 10.6972 111.634 14.1372C111.634 17.5932 113.57 20.1212 117.186 20.1212C120.322 20.1212 121.986 18.2652 122.242 15.5772H119.362C119.17 16.8572 118.594 17.7692 117.058 17.7692C115.154 17.7692 114.514 16.2972 114.514 14.1372C114.514 11.9932 115.154 10.5212 117.058 10.5212C118.578 10.5212 119.154 11.4332 119.362 12.6812ZM131.654 20.1212C135.254 20.1212 137.318 17.5932 137.318 14.1372C137.318 10.6972 135.254 8.16923 131.654 8.16923C128.022 8.16923 125.99 10.6972 125.99 14.1372C125.99 17.5932 128.022 20.1212 131.654 20.1212ZM131.654 17.7692C129.558 17.7692 128.87 16.1372 128.87 14.1372C128.87 12.1532 129.558 10.5212 131.654 10.5212C133.734 10.5212 134.438 12.1532 134.438 14.1372C134.438 16.1372 133.734 17.7692 131.654 17.7692ZM141.623 19.8652H144.503V13.0652H144.535L148.535 19.8652H151.415V8.42523H148.535V15.2252H148.503L144.503 8.42523H141.623V19.8652ZM163.524 12.6812H166.404C166.132 10.0252 164.468 8.16923 161.348 8.16923C157.732 8.16923 155.796 10.6972 155.796 14.1372C155.796 17.5932 157.732 20.1212 161.348 20.1212C164.484 20.1212 166.148 18.2652 166.404 15.5772H163.524C163.332 16.8572 162.756 17.7692 161.22 17.7692C159.316 17.7692 158.676 16.2972 158.676 14.1372C158.676 11.9932 159.316 10.5212 161.22 10.5212C162.74 10.5212 163.316 11.4332 163.524 12.6812ZM170.616 8.42523V19.8652H178.584V17.5132H173.496V8.42523H170.616ZM192.117 15.7372V8.42523H189.237V15.7372C189.237 17.2252 188.597 17.7692 187.333 17.7692C186.069 17.7692 185.429 17.2252 185.429 15.7372V8.42523H182.549V15.7372C182.549 18.5852 183.877 20.1212 187.333 20.1212C190.789 20.1212 192.117 18.5852 192.117 15.7372ZM201.692 12.7612C200.252 12.3612 199.532 12.1372 199.532 11.4332C199.532 10.7932 200.204 10.5212 201.068 10.5212C202.172 10.5212 202.908 11.0332 203.036 11.8972H205.916C205.836 9.57723 203.74 8.16923 201.068 8.16923C198.604 8.16923 196.652 9.14523 196.652 11.6412C196.652 13.7532 198.38 14.6012 200.348 15.1772C201.964 15.6572 203.196 15.8652 203.196 16.7772C203.196 17.3532 202.62 17.7692 201.548 17.7692C200.268 17.7692 199.212 17.3212 199.212 16.1052H196.332C196.332 18.6492 198.572 20.1212 201.548 20.1212C204.412 20.1212 206.076 18.6972 206.076 16.5052C206.076 14.0572 203.852 13.3532 201.692 12.7612ZM210.451 8.42523V19.8652H213.331V8.42523H210.451ZM223.382 20.1212C226.982 20.1212 229.046 17.5932 229.046 14.1372C229.046 10.6972 226.982 8.16923 223.382 8.16923C219.75 8.16923 217.718 10.6972 217.718 14.1372C217.718 17.5932 219.75 20.1212 223.382 20.1212ZM223.382 17.7692C221.286 17.7692 220.598 16.1372 220.598 14.1372C220.598 12.1532 221.286 10.5212 223.382 10.5212C225.462 10.5212 226.166 12.1532 226.166 14.1372C226.166 16.1372 225.462 17.7692 223.382 17.7692ZM233.351 19.8652H236.231V13.0652H236.263L240.263 19.8652H243.143V8.42523H240.263V15.2252H240.231L236.231 8.42523H233.351V19.8652ZM264.165 19.8652L262.165 17.5292C262.885 16.4732 263.317 15.2412 263.445 14.1372H261.205C261.109 14.6652 260.917 15.2252 260.661 15.7692L259.093 13.9612C260.629 13.1612 261.509 12.3932 261.493 11.0812C261.477 9.62523 260.149 8.15323 258.053 8.16923C255.829 8.18523 254.613 9.62523 254.613 11.0812C254.613 12.2012 255.173 12.9052 255.957 13.8332C254.661 14.4892 253.397 15.2732 253.397 17.0492C253.397 18.7932 254.709 20.1212 257.349 20.1212C258.565 20.1212 259.589 19.7852 260.437 19.2252L260.965 19.8652H264.165ZM258.053 10.3612C258.789 10.3612 259.093 10.7772 259.093 11.2412C259.093 11.7852 258.709 12.2332 257.989 12.7132C257.413 12.1372 257.013 11.7532 257.013 11.2412C257.013 10.7772 257.349 10.3612 258.053 10.3612ZM257.669 17.9292C256.613 17.9292 256.117 17.2892 256.117 16.5372C256.117 16.0892 256.261 15.5932 256.997 15.0652L259.061 17.5772C258.661 17.8012 258.197 17.9292 257.669 17.9292ZM276.92 19.8652H279.8V10.7772H283.112V8.42523H273.592V10.7772H276.92V19.8652ZM292.665 17.4812L293.401 19.8652H296.281L292.153 8.42523H289.273L285.129 19.8652H288.009L288.745 17.4812H292.665ZM289.401 15.2892L290.697 11.0652H290.729L292.025 15.2892H289.401ZM300.285 8.42523V19.8652H303.165V16.8412L304.317 15.5292L307.309 19.8652H310.669L306.157 13.4652L310.509 8.42523H307.149L303.165 13.0652V8.42523H300.285ZM317.521 12.8092V10.7772H323.313V8.42523H314.641V19.8652H323.409V17.5132H317.521V15.1612H322.513V12.8092H317.521ZM334.702 17.4812L335.438 19.8652H338.318L334.19 8.42523H331.31L327.166 19.8652H330.046L330.782 17.4812H334.702ZM331.438 15.2892L332.734 11.0652H332.766L334.062 15.2892H331.438ZM340.586 8.42523L343.498 19.8652H346.378L348.09 12.7292H348.122L349.834 19.8652H352.714L355.626 8.42523H352.746L351.274 16.1852H351.242L349.466 8.42523H346.746L344.97 16.1852H344.938L343.466 8.42523H340.586ZM365.399 17.4812L366.135 19.8652H369.015L364.887 8.42523H362.007L357.863 19.8652H360.743L361.479 17.4812H365.399ZM362.135 15.2892L363.431 11.0652H363.463L364.759 15.2892H362.135ZM370.658 8.42523L374.498 15.6412V19.8652H377.378V15.6412L381.234 8.42523H378.194L375.954 13.1292H375.922L373.698 8.42523H370.658ZM389.489 12.7612C388.049 12.3612 387.329 12.1372 387.329 11.4332C387.329 10.7932 388.001 10.5212 388.865 10.5212C389.969 10.5212 390.705 11.0332 390.833 11.8972H393.713C393.633 9.57723 391.537 8.16923 388.865 8.16923C386.401 8.16923 384.449 9.14523 384.449 11.6412C384.449 13.7532 386.177 14.6012 388.145 15.1772C389.761 15.6572 390.993 15.8652 390.993 16.7772C390.993 17.3532 390.417 17.7692 389.345 17.7692C388.065 17.7692 387.009 17.3212 387.009 16.1052H384.129C384.129 18.6492 386.369 20.1212 389.345 20.1212C392.209 20.1212 393.873 18.6972 393.873 16.5052C393.873 14.0572 391.649 13.3532 389.489 12.7612Z" fill="#394B50"/>
<path d="M2 15.4219H73" stroke="#49C0B5" stroke-width="3" stroke-linecap="round" stroke-linejoin="round"/>
</svg>
