<svg width="372" height="34" viewBox="0 0 372 34" fill="none" xmlns="http://www.w3.org/2000/svg">
<path d="M112.098 19.0422H117.33C120.514 19.0422 122.274 17.0102 122.274 13.3302C122.274 9.65024 120.354 7.60224 117.17 7.60224H112.098V19.0422ZM114.978 9.95424H116.882C118.674 9.95424 119.394 11.2502 119.394 13.3302C119.394 15.4102 118.674 16.6902 116.882 16.6902H114.978V9.95424ZM129.459 11.9862V9.95424H135.251V7.60224H126.579V19.0422H135.347V16.6902H129.459V14.3382H134.451V11.9862H129.459ZM142.706 12.4662V9.95424H148.338V7.60224H139.826V19.0422H142.706V14.8182H147.298V12.4662H142.706ZM152.667 7.60224V19.0422H155.547V7.60224H152.667ZM160.32 19.0422H163.2V12.2422H163.232L167.232 19.0422H170.112V7.60224H167.232V14.4022H167.2L163.2 7.60224H160.32V19.0422ZM174.895 7.60224V19.0422H177.775V7.60224H174.895ZM185.129 19.0422H188.009V9.95424H191.321V7.60224H181.801V9.95424H185.129V19.0422ZM195.592 7.60224V19.0422H198.472V7.60224H195.592ZM208.523 19.2982C212.123 19.2982 214.187 16.7702 214.187 13.3142C214.187 9.87424 212.123 7.34624 208.523 7.34624C204.891 7.34624 202.859 9.87424 202.859 13.3142C202.859 16.7702 204.891 19.2982 208.523 19.2982ZM208.523 16.9462C206.427 16.9462 205.739 15.3142 205.739 13.3142C205.739 11.3302 206.427 9.69824 208.523 9.69824C210.603 9.69824 211.307 11.3302 211.307 13.3142C211.307 15.3142 210.603 16.9462 208.523 16.9462ZM218.491 19.0422H221.371V12.2422H221.403L225.403 19.0422H228.283V7.60224H225.403V14.4022H225.371L221.371 7.60224H218.491V19.0422ZM249.306 19.0422L247.306 16.7062C248.026 15.6502 248.458 14.4182 248.586 13.3142H246.346C246.25 13.8422 246.058 14.4022 245.802 14.9462L244.234 13.1382C245.77 12.3382 246.65 11.5702 246.634 10.2582C246.618 8.80224 245.29 7.33024 243.194 7.34624C240.97 7.36224 239.754 8.80224 239.754 10.2582C239.754 11.3782 240.314 12.0822 241.098 13.0102C239.802 13.6662 238.538 14.4502 238.538 16.2262C238.538 17.9702 239.85 19.2982 242.49 19.2982C243.706 19.2982 244.73 18.9622 245.578 18.4022L246.106 19.0422H249.306ZM243.194 9.53824C243.93 9.53824 244.234 9.95424 244.234 10.4182C244.234 10.9622 243.85 11.4102 243.13 11.8902C242.554 11.3142 242.154 10.9302 242.154 10.4182C242.154 9.95424 242.49 9.53824 243.194 9.53824ZM242.81 17.1062C241.754 17.1062 241.258 16.4662 241.258 15.7142C241.258 15.2662 241.402 14.7702 242.138 14.2422L244.202 16.7542C243.802 16.9782 243.338 17.1062 242.81 17.1062ZM264.061 11.9382C262.621 11.5382 261.901 11.3142 261.901 10.6102C261.901 9.97024 262.573 9.69824 263.437 9.69824C264.541 9.69824 265.277 10.2102 265.405 11.0742H268.285C268.205 8.75424 266.109 7.34624 263.437 7.34624C260.973 7.34624 259.021 8.32224 259.021 10.8182C259.021 12.9302 260.749 13.7782 262.717 14.3542C264.333 14.8342 265.565 15.0422 265.565 15.9542C265.565 16.5302 264.989 16.9462 263.917 16.9462C262.637 16.9462 261.581 16.4982 261.581 15.2822H258.701C258.701 17.8262 260.941 19.2982 263.917 19.2982C266.781 19.2982 268.445 17.8742 268.445 15.6822C268.445 13.2342 266.221 12.5302 264.061 11.9382ZM271.239 7.60224L275.079 14.8182V19.0422H277.959V14.8182L281.815 7.60224H278.775L276.535 12.3062H276.503L274.279 7.60224H271.239ZM285.816 19.0422H288.696V12.2422H288.728L292.728 19.0422H295.608V7.60224H292.728V14.4022H292.696L288.696 7.60224H285.816V19.0422ZM302.957 19.0422H305.837V9.95424H309.149V7.60224H299.629V9.95424H302.957V19.0422ZM313.404 7.60224V19.0422H316.284V14.4342H320.204V19.0422H323.084V7.60224H320.204V12.0822H316.284V7.60224H313.404ZM330.734 11.9862V9.95424H336.526V7.60224H327.854V19.0422H336.622V16.6902H330.734V14.3382H335.726V11.9862H330.734ZM345.839 11.9382C344.399 11.5382 343.679 11.3142 343.679 10.6102C343.679 9.97024 344.351 9.69824 345.215 9.69824C346.319 9.69824 347.055 10.2102 347.183 11.0742H350.063C349.983 8.75424 347.887 7.34624 345.215 7.34624C342.751 7.34624 340.799 8.32224 340.799 10.8182C340.799 12.9302 342.527 13.7782 344.495 14.3542C346.111 14.8342 347.343 15.0422 347.343 15.9542C347.343 16.5302 346.767 16.9462 345.695 16.9462C344.415 16.9462 343.359 16.4982 343.359 15.2822H340.479C340.479 17.8262 342.719 19.2982 345.695 19.2982C348.559 19.2982 350.223 17.8742 350.223 15.6822C350.223 13.2342 347.999 12.5302 345.839 11.9382ZM354.598 7.60224V19.0422H357.478V7.60224H354.598ZM367.223 11.9382C365.783 11.5382 365.063 11.3142 365.063 10.6102C365.063 9.97024 365.735 9.69824 366.599 9.69824C367.703 9.69824 368.439 10.2102 368.567 11.0742H371.447C371.367 8.75424 369.271 7.34624 366.599 7.34624C364.135 7.34624 362.183 8.32224 362.183 10.8182C362.183 12.9302 363.911 13.7782 365.879 14.3542C367.495 14.8342 368.727 15.0422 368.727 15.9542C368.727 16.5302 368.151 16.9462 367.079 16.9462C365.799 16.9462 364.743 16.4982 364.743 15.2822H361.863C361.863 17.8262 364.103 19.2982 367.079 19.2982C369.943 19.2982 371.607 17.8742 371.607 15.6822C371.607 13.2342 369.383 12.5302 367.223 11.9382Z" fill="#394B50"/>
<path d="M2 14.5986H73" stroke="#49C0B5" stroke-width="3" stroke-linecap="round" stroke-linejoin="round"/>
</svg>
