<svg width="300" height="34" viewBox="0 0 300 34" fill="none" xmlns="http://www.w3.org/2000/svg">
<path d="M112.114 8.35394V19.7939H114.994V8.35394H112.114ZM119.766 19.7939H124.998C128.182 19.7939 129.942 17.7619 129.942 14.0819C129.942 10.4019 128.022 8.35394 124.838 8.35394H119.766V19.7939ZM122.646 10.7059H124.55C126.342 10.7059 127.062 12.0019 127.062 14.0819C127.062 16.1619 126.342 17.4419 124.55 17.4419H122.646V10.7059ZM137.128 12.7379V10.7059H142.92V8.35394H134.248V19.7939H143.016V17.4419H137.128V15.0899H142.12V12.7379H137.128ZM154.309 17.4099L155.045 19.7939H157.925L153.797 8.35394H150.917L146.773 19.7939H149.653L150.389 17.4099H154.309ZM151.045 15.2179L152.341 10.9939H152.373L153.669 15.2179H151.045ZM163.307 19.7939H166.187V10.7059H169.499V8.35394H159.979V10.7059H163.307V19.7939ZM173.77 8.35394V19.7939H176.65V8.35394H173.77ZM186.701 20.0499C190.301 20.0499 192.365 17.5219 192.365 14.0659C192.365 10.6259 190.301 8.09795 186.701 8.09795C183.069 8.09795 181.037 10.6259 181.037 14.0659C181.037 17.5219 183.069 20.0499 186.701 20.0499ZM186.701 17.6979C184.605 17.6979 183.917 16.0659 183.917 14.0659C183.917 12.0819 184.605 10.4499 186.701 10.4499C188.781 10.4499 189.485 12.0819 189.485 14.0659C189.485 16.0659 188.781 17.6979 186.701 17.6979ZM196.67 19.7939H199.55V12.9939H199.582L203.582 19.7939H206.462V8.35394H203.582V15.1539H203.55L199.55 8.35394H196.67V19.7939Z" fill="#394B50"/>
<path d="M2 15.3506H73" stroke="#49C0B5" stroke-width="3" stroke-linecap="round" stroke-linejoin="round"/>
</svg>
