<svg width="300" height="34" viewBox="0 0 300 34" fill="none" xmlns="http://www.w3.org/2000/svg">
<path d="M112.098 19.042H114.978V14.898H117.65C120.034 14.898 121.522 13.65 121.522 11.25C121.522 8.84999 120.034 7.60199 117.65 7.60199H112.098V19.042ZM114.978 9.95399H117.042C118.034 9.95399 118.642 10.29 118.642 11.25C118.642 12.21 118.034 12.546 117.042 12.546H114.978V9.95399ZM125.735 19.042H128.615V15.058H130.407C132.855 15.058 131.815 18.562 132.375 19.042H135.367V18.882C134.711 18.69 135.751 14.258 132.887 13.762V13.73C134.311 13.41 135.207 12.45 135.207 10.93C135.207 8.76999 133.671 7.60199 131.127 7.60199H125.735V19.042ZM128.615 9.95399H130.567C131.719 9.95399 132.327 10.37 132.327 11.33C132.327 12.29 131.719 12.706 130.567 12.706H128.615V9.95399ZM144.87 19.298C148.47 19.298 150.534 16.77 150.534 13.314C150.534 9.87399 148.47 7.34599 144.87 7.34599C141.238 7.34599 139.206 9.87399 139.206 13.314C139.206 16.77 141.238 19.298 144.87 19.298ZM144.87 16.946C142.774 16.946 142.086 15.314 142.086 13.314C142.086 11.33 142.774 9.69799 144.87 9.69799C146.95 9.69799 147.654 11.33 147.654 13.314C147.654 15.314 146.95 16.946 144.87 16.946ZM157.17 19.042H160.05V9.95399H163.362V7.60199H153.842V9.95399H157.17V19.042ZM172.332 19.298C175.932 19.298 177.996 16.77 177.996 13.314C177.996 9.87399 175.932 7.34599 172.332 7.34599C168.7 7.34599 166.668 9.87399 166.668 13.314C166.668 16.77 168.7 19.298 172.332 19.298ZM172.332 16.946C170.236 16.946 169.548 15.314 169.548 13.314C169.548 11.33 170.236 9.69799 172.332 9.69799C174.412 9.69799 175.116 11.33 175.116 13.314C175.116 15.314 174.412 16.946 172.332 16.946ZM184.632 19.042H187.512V9.95399H190.824V7.60199H181.304V9.95399H184.632V19.042ZM194.545 7.60199L198.385 14.818V19.042H201.265V14.818L205.121 7.60199H202.081L199.841 12.306H199.809L197.585 7.60199H194.545ZM209.123 19.042H212.003V14.898H214.675C217.059 14.898 218.547 13.65 218.547 11.25C218.547 8.84999 217.059 7.60199 214.675 7.60199H209.123V19.042ZM212.003 9.95399H214.067C215.059 9.95399 215.667 10.29 215.667 11.25C215.667 12.21 215.059 12.546 214.067 12.546H212.003V9.95399ZM222.776 7.60199V19.042H225.656V7.60199H222.776ZM230.429 19.042H233.309V12.242H233.341L237.341 19.042H240.221V7.60199H237.341V14.402H237.309L233.309 7.60199H230.429V19.042ZM252.426 11.394H255.306C255.034 9.20199 253.29 7.34599 250.154 7.34599C246.554 7.34599 244.618 9.87399 244.618 13.314C244.618 16.77 246.554 19.298 249.802 19.298C251.482 19.298 252.554 18.626 253.098 17.586H253.13L253.418 19.042H255.482V12.962H250.33V15.042H252.506C252.474 16.146 251.546 16.946 250.218 16.946C248.218 16.946 247.498 15.474 247.498 13.314C247.498 11.17 248.218 9.69799 250.106 9.69799C251.69 9.69799 252.218 10.61 252.426 11.394Z" fill="#394B50"/>
<path d="M2 14.5986H73" stroke="#49C0B5" stroke-width="3" stroke-linecap="round" stroke-linejoin="round"/>
</svg>
