<svg width="300" height="34" viewBox="0 0 300 34" fill="none" xmlns="http://www.w3.org/2000/svg">
<path d="M112.098 19.0422H114.978V15.0582H116.77C119.218 15.0582 118.178 18.5622 118.738 19.0422H121.73V18.8822C121.074 18.6902 122.114 14.2582 119.25 13.7622V13.7302C120.674 13.4102 121.57 12.4502 121.57 10.9302C121.57 8.77024 120.034 7.60224 117.49 7.60224H112.098V19.0422ZM114.978 9.95424H116.93C118.082 9.95424 118.69 10.3702 118.69 11.3302C118.69 12.2902 118.082 12.7062 116.93 12.7062H114.978V9.95424ZM128.912 11.9862V9.95424H134.704V7.60224H126.032V19.0422H134.8V16.6902H128.912V14.3382H133.904V11.9862H128.912ZM144.017 11.9382C142.577 11.5382 141.857 11.3142 141.857 10.6102C141.857 9.97024 142.529 9.69824 143.393 9.69824C144.497 9.69824 145.233 10.2102 145.361 11.0742H148.241C148.161 8.75424 146.065 7.34624 143.393 7.34624C140.929 7.34624 138.977 8.32224 138.977 10.8182C138.977 12.9302 140.705 13.7782 142.673 14.3542C144.289 14.8342 145.521 15.0422 145.521 15.9542C145.521 16.5302 144.945 16.9462 143.873 16.9462C142.593 16.9462 141.537 16.4982 141.537 15.2822H138.657C138.657 17.8262 140.897 19.2982 143.873 19.2982C146.737 19.2982 148.401 17.8742 148.401 15.6822C148.401 13.2342 146.177 12.5302 144.017 11.9382ZM155.64 11.9862V9.95424H161.432V7.60224H152.76V19.0422H161.528V16.6902H155.64V14.3382H160.632V11.9862H155.64ZM172.821 16.6582L173.557 19.0422H176.437L172.309 7.60224H169.429L165.285 19.0422H168.165L168.901 16.6582H172.821ZM169.557 14.4662L170.853 10.2422H170.885L172.181 14.4662H169.557ZM180.441 19.0422H183.321V15.0582H185.113C187.561 15.0582 186.521 18.5622 187.081 19.0422H190.073V18.8822C189.417 18.6902 190.457 14.2582 187.593 13.7622V13.7302C189.017 13.4102 189.913 12.4502 189.913 10.9302C189.913 8.77024 188.377 7.60224 185.833 7.60224H180.441V19.0422ZM183.321 9.95424H185.273C186.425 9.95424 187.033 10.3702 187.033 11.3302C187.033 12.2902 186.425 12.7062 185.273 12.7062H183.321V9.95424ZM201.64 11.8582H204.52C204.248 9.20224 202.584 7.34624 199.464 7.34624C195.848 7.34624 193.912 9.87424 193.912 13.3142C193.912 16.7702 195.848 19.2982 199.464 19.2982C202.6 19.2982 204.264 17.4422 204.52 14.7542H201.64C201.448 16.0342 200.872 16.9462 199.336 16.9462C197.432 16.9462 196.792 15.4742 196.792 13.3142C196.792 11.1702 197.432 9.69824 199.336 9.69824C200.856 9.69824 201.432 10.6102 201.64 11.8582ZM208.732 7.60224V19.0422H211.612V14.4342H215.532V19.0422H218.412V7.60224H215.532V12.0822H211.612V7.60224H208.732Z" fill="#394B50"/>
<path d="M2 14.5986H73" stroke="#49C0B5" stroke-width="3" stroke-linecap="round" stroke-linejoin="round"/>
</svg>
